<?xml version="1.0" encoding="utf-8"?>
<!-- Generator: Adobe Illustrator 19.2.1, SVG Export Plug-In . SVG Version: 6.00 Build 0)  -->
<svg version="1.1" id="Layer_1" xmlns="http://www.w3.org/2000/svg" xmlns:xlink="http://www.w3.org/1999/xlink" x="0px" y="0px"
	 viewBox="0 0 37 36.2" style="enable-background:new 0 0 37 36.2;" xml:space="preserve">
<style type="text/css">
	.st0{fill:#B4B4B5;}
	.st1{fill:#FFFFFF;}
</style>
<g>
	
		<rect x="-501.3" y="8.2" transform="matrix(0.9503 -0.3113 0.3113 0.9503 -29.9899 -152.0972)" class="st0" width="19.7" height="19.3"/>
	<path class="st0" d="M-509.2-48.9l-8.6,2.8c-45.5,14.9-52.9,41.3-39.9,81l2.9,8.8c14.3,43.8,40.7,54.6,80.1,41.7l8.6-2.8
		c42.8-14,53.2-40.2,39.9-81l-2.9-8.8C-444.1-53-470.1-61.7-509.2-48.9z M-457.1,16.8c3.8-1.3,8,0.9,9.3,4.8s-0.8,8.1-4.6,9.4
		l-8,2.6l3,9c1.3,3.9-0.8,8.1-4.6,9.4c-3.8,1.3-8-0.9-9.3-4.8l-3-9l-18.7,6.1l3,9c1.3,3.9-0.8,8.1-4.6,9.4s-8-0.9-9.3-4.8l-3-9
		l-9.1,3c-3.8,1.3-8-0.9-9.3-4.8s0.8-8.1,4.6-9.4l9.1-3l-6-18.3l-9.1,3c-3.8,1.3-8-0.9-9.3-4.8s0.8-8.1,4.6-9.4l9.1-3l-3-9.3
		c-1.3-3.9,0.8-8.1,4.6-9.4c3.8-1.3,8,0.9,9.3,4.8l3,9.3l18.7-6.1l-3-9.3c-1.3-3.9,0.8-8.1,4.6-9.4c3.8-1.3,8,0.9,9.3,4.8l3,9.3
		l8-2.6c3.8-1.3,8,0.9,9.3,4.8s-0.8,8.1-4.6,9.4l-8,2.6l6,18.3L-457.1,16.8z"/>
</g>
<g id="white">
	<path class="st0" d="M-195-50.6h-98.9c-6.8,0-12.4,5.5-12.4,12.4V74.4c0,6.8,5.5,12.4,12.4,12.4h98.9c6.8,0,12.4-5.5,12.4-12.4
		V-38.2C-182.6-45-188.1-50.6-195-50.6z M-275.3,66.2V38.7l15.5,13.7L-275.3,66.2z M-227.2,66.2v-41c-0.1-3.2-1.6-7.1-8.6-7.1
		c-14,0-29.6,7-29.8,7.1l-9.7,4.4V-30h13.7V9c6.9-2.2,16.4-4.7,25.8-4.7c8.5,0,13.6,3.3,16.3,6.1c5.9,6,6,13.6,6,14.5v41.2
		L-227.2,66.2L-227.2,66.2z M-223.8-7.7h-13.7c5.4-7.1,8.8-14.5,10.3-22.3h13.7C-214.4-22.2-217.6-14.7-223.8-7.7z"/>
</g>
<g>
	<path class="st1" d="M18.5,0C8.3,0,0,8.3,0,18.5c0,8.2,5.3,15.1,12.7,17.6c0.9,0.2,1.3-0.4,1.3-0.9c0-0.5,0-1.9,0-3.5
		c-5.2,1.2-6.3-2.2-6.3-2.2c-0.9-2.2-2.1-2.7-2.1-2.7c-1.7-1.2,0.1-1.1,0.1-1.1c1.9,0.1,2.8,1.9,2.8,1.9c1.7,2.8,4.3,2,5.4,1.6
		c0.2-1.2,0.7-2,1.2-2.5c-4.1-0.5-8.4-2.1-8.4-9.2c0-2,0.7-3.7,1.9-5c-0.2-0.5-0.8-2.4,0.2-4.9c0,0,1.6-0.5,5.1,1.9
		C15.3,9.2,16.9,9,18.5,9c1.6,0,3.2,0.2,4.6,0.6c3.5-2.4,5.1-1.9,5.1-1.9c1,2.6,0.4,4.4,0.2,4.9c1.2,1.3,1.9,3,1.9,5
		c0,7.1-4.3,8.7-8.5,9.1c0.7,0.6,1.3,1.7,1.3,3.4c0,2.5,0,4.5,0,5.1c0,0.5,0.3,1.1,1.3,0.9C31.7,33.7,37,26.7,37,18.5
		C37,8.3,28.8,0,18.5,0z"/>
	<path class="st1" d="M7,26.6c-0.1,0.1-0.2,0.1-0.3,0.1c-0.1-0.1-0.2-0.2-0.2-0.3c0.1-0.1,0.2-0.1,0.3-0.1C7,26.4,7.1,26.5,7,26.6
		L7,26.6z"/>
	<path class="st1" d="M7.8,27.4c-0.1,0.1-0.3,0.1-0.4-0.1c-0.1-0.1-0.2-0.3-0.1-0.4c0.1-0.1,0.3-0.1,0.4,0.1
		C7.8,27.2,7.9,27.4,7.8,27.4L7.8,27.4z"/>
	<path class="st1" d="M8.5,28.5c-0.1,0.1-0.3,0-0.4-0.2c-0.1-0.2-0.1-0.4,0-0.5c0.1-0.1,0.3,0,0.4,0.2C8.6,28.2,8.6,28.4,8.5,28.5
		L8.5,28.5z"/>
	<path class="st1" d="M9.5,29.5c-0.1,0.1-0.3,0.1-0.5-0.1c-0.2-0.2-0.2-0.4-0.1-0.5c0.1-0.1,0.3-0.1,0.5,0.1
		C9.6,29.2,9.6,29.4,9.5,29.5L9.5,29.5z"/>
	<path class="st1" d="M10.9,30.1c-0.1,0.2-0.3,0.2-0.5,0.2c-0.2-0.1-0.4-0.2-0.3-0.4c0.1-0.2,0.3-0.2,0.5-0.2
		C10.8,29.8,10.9,30,10.9,30.1L10.9,30.1z"/>
	<path class="st1" d="M12.4,30.2c0,0.2-0.2,0.3-0.4,0.3c-0.2,0-0.4-0.1-0.4-0.3S11.8,30,12,30C12.2,30,12.4,30.1,12.4,30.2
		L12.4,30.2z"/>
	<path class="st1" d="M13.8,30c0,0.2-0.1,0.3-0.4,0.4c-0.2,0.1-0.4-0.1-0.5-0.2c0-0.2,0.1-0.3,0.4-0.4C13.6,29.8,13.8,29.9,13.8,30
		L13.8,30z"/>
</g>
</svg>
