<?xml version="1.0" encoding="utf-8"?>
<!-- Generator: Adobe Illustrator 19.2.1, SVG Export Plug-In . SVG Version: 6.00 Build 0)  -->
<svg version="1.1" id="Layer_1" xmlns="http://www.w3.org/2000/svg" xmlns:xlink="http://www.w3.org/1999/xlink" x="0px" y="0px"
	 viewBox="0 0 50 40.3" style="enable-background:new 0 0 50 40.3;" xml:space="preserve">
<style type="text/css">
	.st0{fill:#F2F2F2;}
</style>
<g>
	<path class="st0" d="M48.5,5.3c0-1.5-0.9-2-2.1-2S24,3.3,23,3.3s-1.2-1-1.2-1.8c0-0.7-0.5-1.5-1.4-1.5C19.5,0,7.2,0,6,0
		C4.8,0,4.8,1.2,4.8,1.6S4.3,3.2,3.4,3.2C2.2,3.2,1.7,4,1.7,4.6c0,0.3,0,1.3,0,1.3l46.8,0.3V5.3z"/>
	<path class="st0" d="M48.4,7.4H1.6C0.7,7.4,0,8.1,0,9l1.3,29.7c0,0.9,0.7,1.6,1.6,1.6h44.2c0.9,0,1.6-0.7,1.6-1.6L50,9
		C50,8.1,49.3,7.4,48.4,7.4z M33.3,33.2v2.1H16.8v-2.1h8.2l-8.2-10.7h5.3v-7.5H28v7.5h5.3l-8.2,10.7H33.3z"/>
</g>
</svg>
